<svg width="1600" height="520" viewBox="0 0 1600 520" fill="none" xmlns="http://www.w3.org/2000/svg">
<defs>
  <linearGradient id="bg" x1="0" y1="0" x2="1600" y2="520" gradientUnits="userSpaceOnUse">
    <stop stop-color="#07111F"/>
    <stop offset="0.55" stop-color="#0B1730"/>
    <stop offset="1" stop-color="#07101D"/>
  </linearGradient>
  <linearGradient id="blue" x1="80" y1="80" x2="760" y2="410" gradientUnits="userSpaceOnUse">
    <stop stop-color="#22D3EE"/>
    <stop offset="1" stop-color="#2563EB"/>
  </linearGradient>
  <linearGradient id="text" x1="410" y1="160" x2="900" y2="220" gradientUnits="userSpaceOnUse">
    <stop stop-color="#F8FAFC"/>
    <stop offset="0.7" stop-color="#F8FAFC"/>
    <stop offset="1" stop-color="#22D3EE"/>
  </linearGradient>
  <linearGradient id="wave" x1="0" y1="440" x2="1600" y2="440" gradientUnits="userSpaceOnUse">
    <stop stop-color="#2563EB" stop-opacity="0"/>
    <stop offset="0.25" stop-color="#22D3EE" stop-opacity="0.9"/>
    <stop offset="0.55" stop-color="#2563EB" stop-opacity="0.7"/>
    <stop offset="0.85" stop-color="#22D3EE" stop-opacity="0.35"/>
    <stop offset="1" stop-color="#2563EB" stop-opacity="0"/>
  </linearGradient>
  <filter id="glow" x="-50%" y="-50%" width="200%" height="200%">
    <feGaussianBlur stdDeviation="12" result="blur"/>
    <feMerge><feMergeNode in="blur"/><feMergeNode in="SourceGraphic"/></feMerge>
  </filter>
  <filter id="shadow" x="-30%" y="-30%" width="160%" height="160%">
    <feDropShadow dx="0" dy="18" stdDeviation="18" flood-color="#000000" flood-opacity="0.35"/>
  </filter>
</defs>

<rect width="1600" height="520" rx="28" fill="url(#bg)"/>
<rect x="20" y="20" width="1560" height="480" rx="20" stroke="#1E3A5F" stroke-opacity="0.7"/>

<circle cx="1260" cy="110" r="220" fill="#0EA5E9" fill-opacity="0.055"/>
<circle cx="1390" cy="300" r="180" fill="#2563EB" fill-opacity="0.045"/>

<g opacity="0.22">
  <path d="M0 430 C240 350 360 500 620 420 S1030 360 1260 430 S1450 470 1600 400" stroke="#22D3EE" stroke-width="2"/>
  <path d="M0 458 C220 390 410 510 650 445 S1050 390 1290 452 S1460 490 1600 430" stroke="#2563EB" stroke-width="2"/>
</g>

<g transform="translate(100 118)" filter="url(#shadow)">
  <path d="M20 76 L98 76 L126 50 L205 50 C229 50 247 69 247 93 L247 224 C247 248 229 267 205 267 L42 267 C18 267 0 248 0 224 L0 116 C0 94 8 82 20 76Z" fill="url(#blue)"/>
  <path d="M0 113 L-65 113 C-82 113 -82 88 -65 88 L10 88Z" fill="#22D3EE" opacity="0.95"/>
  <path d="M0 146 L-92 146 C-109 146 -109 121 -92 121 L0 121Z" fill="#2563EB" opacity="0.9"/>
  <path d="M0 179 L-65 179 C-82 179 -82 154 -65 154 L0 154Z" fill="#22D3EE" opacity="0.75"/>
  <circle cx="124" cy="158" r="74" fill="#06101E" stroke="#67E8F9" stroke-width="6"/>
  <circle cx="124" cy="158" r="55" fill="#0B1B31" stroke="#1D4ED8" stroke-width="4"/>
  <circle cx="124" cy="158" r="35" fill="#020617"/>
  <circle cx="108" cy="142" r="11" fill="#BAE6FD" opacity="0.75"/>
  <circle cx="207" cy="88" r="10" fill="#E0F2FE" opacity="0.9"/>
</g>

<text x="405" y="190" font-family="Inter, Segoe UI, Arial, sans-serif" font-size="86" font-weight="800" letter-spacing="-3" fill="url(#text)">VISIONFLOW</text>
<text x="410" y="245" font-family="Inter, Segoe UI, Arial, sans-serif" font-size="26" font-weight="600" letter-spacing="8" fill="#CBD5E1">SMART CAMERA STREAMING PLATFORM</text>

<g transform="translate(410 300)">
  <g>
    <rect width="190" height="82" rx="14" fill="#0B1B31" stroke="#1E4B78"/>
    <circle cx="31" cy="30" r="15" stroke="#22D3EE" stroke-width="3"/>
    <circle cx="31" cy="30" r="6" fill="#22D3EE"/>
    <text x="58" y="35" font-family="Inter, Segoe UI, Arial, sans-serif" font-size="17" font-weight="700" fill="#F8FAFC">MULTI-SOURCE</text>
    <text x="58" y="59" font-family="Inter, Segoe UI, Arial, sans-serif" font-size="13" fill="#94A3B8">Webcam · RTSP</text>
  </g>
  <g transform="translate(210)">
    <rect width="190" height="82" rx="14" fill="#0B1B31" stroke="#1E4B78"/>
    <path d="M29 20 L29 42 L47 31Z" fill="#22D3EE"/>
    <rect x="20" y="16" width="38" height="30" rx="7" stroke="#22D3EE" stroke-width="3"/>
    <text x="72" y="35" font-family="Inter, Segoe UI, Arial, sans-serif" font-size="17" font-weight="700" fill="#F8FAFC">LIVE STREAM</text>
    <text x="72" y="59" font-family="Inter, Segoe UI, Arial, sans-serif" font-size="13" fill="#94A3B8">Real-time MJPEG</text>
  </g>
  <g transform="translate(420)">
    <rect width="190" height="82" rx="14" fill="#0B1B31" stroke="#1E4B78"/>
    <path d="M23 45 L23 27 L33 35 L45 20 L55 27 L55 45Z" stroke="#22D3EE" stroke-width="3" fill="none"/>
    <text x="72" y="35" font-family="Inter, Segoe UI, Arial, sans-serif" font-size="17" font-weight="700" fill="#F8FAFC">SMART PIPELINE</text>
    <text x="72" y="59" font-family="Inter, Segoe UI, Arial, sans-serif" font-size="13" fill="#94A3B8">Real-time processing</text>
  </g>
  <g transform="translate(630)">
    <rect width="190" height="82" rx="14" fill="#0B1B31" stroke="#1E4B78"/>
    <rect x="21" y="19" width="38" height="34" rx="5" stroke="#22D3EE" stroke-width="3"/>
    <path d="M29 29 H51 M29 37 H51 M29 45 H45" stroke="#22D3EE" stroke-width="2"/>
    <text x="72" y="35" font-family="Inter, Segoe UI, Arial, sans-serif" font-size="17" font-weight="700" fill="#F8FAFC">CAMERA API</text>
    <text x="72" y="59" font-family="Inter, Segoe UI, Arial, sans-serif" font-size="13" fill="#94A3B8">Manage & monitor</text>
  </g>
</g>

<g transform="translate(1170 105)" filter="url(#shadow)">
  <rect width="335" height="235" rx="18" fill="#081426" stroke="#1E4B78"/>
  <rect x="1" y="1" width="333" height="38" rx="17" fill="#0D2038"/>
  <circle cx="22" cy="20" r="5" fill="#22D3EE"/>
  <text x="38" y="25" font-family="Inter, Segoe UI, Arial, sans-serif" font-size="13" font-weight="700" fill="#E2E8F0">VisionFlow Camera</text>
  <rect x="18" y="55" width="299" height="104" rx="10" fill="#102A42"/>
  <rect x="29" y="66" width="277" height="82" rx="7" fill="#163A55"/>
  <circle cx="58" cy="88" r="5" fill="#22C55E"/>
  <text x="70" y="93" font-family="Inter, Segoe UI, Arial, sans-serif" font-size="11" fill="#F8FAFC">LIVE</text>
  <path d="M38 132 C82 105 102 126 138 112 S205 105 232 119 S273 128 296 110" stroke="#22D3EE" stroke-width="2" opacity="0.8"/>
  <g transform="translate(18 175)">
    <rect width="88" height="42" rx="8" fill="#0D2038" stroke="#1E3A5F"/>
    <text x="11" y="17" font-family="Inter, Segoe UI, Arial, sans-serif" font-size="9" fill="#64748B">FPS</text>
    <text x="11" y="33" font-family="Inter, Segoe UI, Arial, sans-serif" font-size="14" font-weight="700" fill="#F8FAFC">29.8</text>
    <rect x="97" width="88" height="42" rx="8" fill="#0D2038" stroke="#1E3A5F"/>
    <text x="108" y="17" font-family="Inter, Segoe UI, Arial, sans-serif" font-size="9" fill="#64748B">RESOLUTION</text>
    <text x="108" y="33" font-family="Inter, Segoe UI, Arial, sans-serif" font-size="13" font-weight="700" fill="#F8FAFC">1280×720</text>
    <rect x="194" width="88" height="42" rx="8" fill="#0D2038" stroke="#1E3A5F"/>
    <text x="205" y="17" font-family="Inter, Segoe UI, Arial, sans-serif" font-size="9" fill="#64748B">STATUS</text>
    <text x="205" y="33" font-family="Inter, Segoe UI, Arial, sans-serif" font-size="13" font-weight="700" fill="#22C55E">RUNNING</text>
  </g>
</g>

<g opacity="0.8" filter="url(#glow)">
  <path d="M0 430 C260 350 390 500 650 420 S1040 365 1290 430 S1450 470 1600 405" stroke="url(#wave)" stroke-width="3"/>
  <path d="M0 456 C230 390 420 510 660 445 S1060 390 1300 455 S1470 490 1600 430" stroke="url(#wave)" stroke-width="2" opacity="0.55"/>
</g>

<text x="101" y="465" font-family="Inter, Segoe UI, Arial, sans-serif" font-size="14" font-weight="600" letter-spacing="3" fill="#64748B">FASTAPI  ·  OPENCV  ·  MJPEG  ·  REAL-TIME CAMERA MANAGEMENT</text>
</svg>